<svg width="118" height="113" viewBox="0 0 118 113" fill="none" xmlns="http://www.w3.org/2000/svg">
<g filter="url(#filter0_d_24_263)">
<path d="M107.3 44.9244V35.86H114V17.6663H102.607L58.9998 0L15.3929 17.6663H4V35.8602H10.7003V44.9246H13.9679V77.2417H10.7003V86.3061H4V104.5H114V86.3061H107.3V77.2417H104.032V44.9244H107.3ZM58.9998 7.05846L85.1836 17.6661H32.8163L58.9998 7.05846ZM107.3 92.8489H107.465V97.9567H10.5349V92.8489H10.7003H107.3ZM85.4303 38.3815H80.2115H61.6095H56.3905H37.7885H32.5697H17.2352V35.8602H100.765V38.3815H85.4303ZM97.4972 44.9244V77.2415H91.9652V44.9244H97.4972ZM85.4301 44.9244V77.2415H80.2113V44.9244H85.4301ZM73.6766 44.9244V77.2415H68.1446V44.9244H73.6766ZM56.3905 44.9244H61.6095V77.2415H56.3905V44.9244ZM49.8556 44.9244V77.2415H44.3236V44.9244H49.8556ZM37.7885 44.9244V77.2415H32.5697V44.9244H37.7885ZM26.0348 44.9244V77.2415H20.5028V44.9244H26.0348ZM32.5697 83.7845H37.7885H56.3905H61.6095H80.2115H85.4303H100.765V86.3058H17.2352V83.7845H32.5697ZM10.7003 29.3172H10.5349V24.2093H107.465V29.3172H107.3H10.7003Z" fill="#52D2E3"/>
</g>
<defs>
<filter id="filter0_d_24_263" x="0" y="0" width="118" height="112.5" filterUnits="userSpaceOnUse" color-interpolation-filters="sRGB">
<feFlood flood-opacity="0" result="BackgroundImageFix"/>
<feColorMatrix in="SourceAlpha" type="matrix" values="0 0 0 0 0 0 0 0 0 0 0 0 0 0 0 0 0 0 127 0" result="hardAlpha"/>
<feOffset dy="4"/>
<feGaussianBlur stdDeviation="2"/>
<feComposite in2="hardAlpha" operator="out"/>
<feColorMatrix type="matrix" values="0 0 0 0 0 0 0 0 0 0 0 0 0 0 0 0 0 0 0.25 0"/>
<feBlend mode="normal" in2="BackgroundImageFix" result="effect1_dropShadow_24_263"/>
<feBlend mode="normal" in="SourceGraphic" in2="effect1_dropShadow_24_263" result="shape"/>
</filter>
</defs>
</svg>
