<svg width="60" height="58" viewBox="0 0 60 58" fill="none" xmlns="http://www.w3.org/2000/svg">
<path fill-rule="evenodd" clip-rule="evenodd" d="M42.0121 0C55.4126 0 62.4147 10.0005 59.2437 24.5496C55.7679 40.4576 44.254 51.7503 30.0859 57.6923C12.1924 50.2833 1.88885 35.5623 0 15.6771C7.89836 14.3638 14.1154 8.83499 13.677 0H42.0119L42.0121 0Z" fill="white"/>
<path fill-rule="evenodd" clip-rule="evenodd" d="M57.1294 24.0827C54.1243 38.1468 43.9355 49.3748 30.0968 55.3429C13.8148 48.3668 4.43864 34.5854 2.39001 17.3327C9.66 15.4846 15.3031 10.022 15.8083 2.12426H42.1121C54.9981 2.06748 59.795 12.1787 57.131 24.0818L57.1294 24.0827Z" fill="black"/>
<path fill-rule="evenodd" clip-rule="evenodd" d="M55.2538 23.6662C52.2772 37.3347 42.7045 47.5323 30.0991 53.2428C15.785 46.8853 6.82884 34.5594 4.50006 18.7069C11.2362 16.4092 16.374 11.23 17.5255 4.06033H42.1133C53.7646 4.00333 57.5841 13.0211 55.253 23.6649L55.2538 23.6662Z" fill="white"/>
<path fill-rule="evenodd" clip-rule="evenodd" d="M46.2253 20.3111H27.4458L32.811 12.3726L36.2326 11.1971C36.6633 11.0499 36.5399 10.74 36.3195 10.74H33.1078L32.7604 7.26567C32.7492 7.08027 32.452 7.0045 32.3763 7.25454L31.3224 10.7398H27.9783C27.692 10.7398 27.6559 11.073 27.9783 11.1968L31.0261 12.297L23.8506 20.3109H8.67638C8.0828 20.3109 7.99591 21.3115 8.67638 21.3602L21.8556 23.0166C21.4105 23.8219 20.6681 24.6009 20.4054 25.5019C20.1323 26.4402 20.8655 27.1594 21.595 26.9967C22.7714 26.7401 24.7178 24.303 25.5125 23.3273L25.8183 22.8469L46.2253 21.3242C46.9491 21.2866 46.9355 20.3111 46.2253 20.3111Z" fill="black"/>
<path fill-rule="evenodd" clip-rule="evenodd" d="M25.2445 35.9162C25.1103 36.4143 24.9967 36.7725 24.8969 37.0467V32.9505C25.3044 32.9286 25.8672 32.8998 25.8672 32.8998L25.9361 31.5203V29.125H20.2553C20.2553 29.125 19.6108 30.8194 19.4335 31.2924C19.254 30.8194 18.6116 29.125 18.6116 29.125H12.8166V32.8963C12.8166 32.8963 13.434 32.9289 13.8558 32.9507C13.8558 33.0011 13.854 37.5315 13.854 37.5711C13.4741 37.5927 47.4681 37.5927 47.0479 37.5711V32.9507C47.453 32.9289 48.0146 32.9 48.0146 32.9L48.0866 31.5206V29.1252H35.7804V32.9C35.7804 32.9 36.4318 32.9326 36.8479 32.9507V37.3546C36.7327 37.1232 36.5771 36.6648 36.3412 35.6491L32.4133 18.8955L29.5934 18.8682C29.5934 18.8682 25.2488 35.8872 25.2449 35.9162H25.2445ZM30.7081 36.8629C30.7661 37.1376 30.8099 37.3684 30.8425 37.5676C30.6322 37.575 30.5238 37.5787 30.2592 37.5887V37.5525H29.1441C29.1642 37.4697 29.2327 37.1989 29.3198 36.8631C29.9114 36.8629 30.1108 36.8629 30.7081 36.8629Z" fill="white"/>
<path fill-rule="evenodd" clip-rule="evenodd" d="M31.6157 34.3471L30.1827 27.3191L28.4994 34.3471H31.6157ZM40.2869 36.5618L43.6036 32.5267V32.3891C43.6036 31.941 43.35 31.5189 42.5356 31.5189V30.5688H46.6343V31.5189C45.6243 31.5189 45.5949 31.9122 45.5949 32.92V37.5989C45.5949 38.6353 45.6781 39 46.6343 39V39.9215H42.5358V39C43.4629 39 43.6039 38.6639 43.6039 37.5989V33.9606L40.2871 38.0208V38.1876C40.2871 38.7471 40.5988 39.0002 41.3552 39.0002V39.9217H31.167V39.0002C31.8983 39.0002 32.373 38.9423 32.373 38.2127C32.373 37.7684 32.1771 36.645 31.8696 35.4132H28.1917L27.7137 37.2921C27.3771 38.5235 27.4874 39.0004 28.8072 39.0004V39.922H20.3023V39.0004C21.3124 39.0004 21.4247 38.6643 21.4247 37.5993V33.2281L18.8429 39.6186L16.2326 33.0329V37.6817C16.2326 38.5779 16.3449 39.0004 17.3261 39.0004V39.922H14.1833V39.0004C15.2514 39.0004 15.3055 38.354 15.3055 37.4578V32.9207C15.3055 32.1116 15.3055 31.5196 14.2681 31.5196V30.5694H17.6065L19.4329 35.3883L21.2574 30.5694H24.4836V31.5196C23.4753 31.5196 23.4464 31.9129 23.4464 32.9207V37.5995C23.4464 38.4949 23.5315 38.7766 23.8103 38.8598C24.4298 39.0838 25.581 39.0262 25.9157 38.3542C26.142 37.935 26.3937 37.234 26.6452 36.2843L30.9959 19.2251L34.9283 35.9733C35.3485 37.7941 35.6022 38.2418 35.9964 38.6357C36.3879 38.9712 37.6804 39.2243 38.1293 38.7187C38.2411 38.6071 38.2954 38.4119 38.2954 37.5993V32.9204C38.2954 31.8548 38.2124 31.5194 37.231 31.5194V30.5692H41.3547V31.5194C40.3447 31.5194 40.2867 31.9417 40.2867 32.9204L40.2869 36.5618Z" fill="black"/>
</svg>
