<svg width="124" height="74" viewBox="0 0 124 74" fill="none" xmlns="http://www.w3.org/2000/svg">
<path d="M121.062 18.5H2.9375C1.3625 18.5 0.125 19.5175 0.125 20.8125V71.6875C0.125 72.9825 1.3625 74 2.9375 74H121.062C122.637 74 123.875 72.9825 123.875 71.6875V20.8125C123.875 19.5175 122.637 18.5 121.062 18.5ZM118.25 69.375H5.75V23.125H118.25V69.375Z" fill="#FEFEFE"/>
<path d="M17.8438 64.0563C18.35 64.5188 19.0813 64.75 19.8125 64.75H104.188C104.919 64.75 105.65 64.5188 106.156 64.0563L111.781 59.4313C112.344 59.015 112.625 58.4137 112.625 57.8125V34.6875C112.625 34.0862 112.344 33.485 111.781 33.0687L106.156 28.4437C105.65 27.9812 104.919 27.75 104.188 27.75H19.8125C19.0813 27.75 18.35 27.9812 17.8438 28.4437L12.2188 33.0687C11.6563 33.485 11.375 34.0862 11.375 34.6875V57.8125C11.375 58.4137 11.6563 59.015 12.2188 59.4313L17.8438 64.0563ZM17 35.6588L20.9938 32.375H103.006L107 35.6588V56.8413L103.006 60.125H20.9938L17 56.8413V35.6588Z" fill="#FEFEFE"/>
<path d="M62 55.5C68.1875 55.5 73.25 51.3375 73.25 46.25C73.25 41.1625 68.1875 37 62 37C55.8125 37 50.75 41.1625 50.75 46.25C50.75 51.3375 55.8125 55.5 62 55.5ZM62 41.625C65.0938 41.625 67.625 43.7062 67.625 46.25C67.625 48.7938 65.0938 50.875 62 50.875C58.9062 50.875 56.375 48.7938 56.375 46.25C56.375 43.7062 58.9062 41.625 62 41.625Z" fill="#FEFEFE"/>
<path d="M31.0625 55.5C32.6172 55.5 33.875 54.4659 33.875 53.1875V39.3125C33.875 38.0342 32.6172 37 31.0625 37C29.5078 37 28.25 38.0342 28.25 39.3125V53.1875C28.25 54.4659 29.5078 55.5 31.0625 55.5Z" fill="#FEFEFE"/>
<path d="M92.9375 55.5C94.4922 55.5 95.75 54.4659 95.75 53.1875V39.3125C95.75 38.0342 94.4922 37 92.9375 37C91.3828 37 90.125 38.0342 90.125 39.3125V53.1875C90.125 54.4659 91.3828 55.5 92.9375 55.5Z" fill="#FEFEFE"/>
<path d="M8.5625 13.875H115.438C116.992 13.875 118.25 12.8409 118.25 11.5625C118.25 10.2842 116.992 9.25 115.438 9.25H8.5625C7.00775 9.25 5.75 10.2842 5.75 11.5625C5.75 12.8409 7.00775 13.875 8.5625 13.875Z" fill="#FEFEFE"/>
<path d="M14.1875 4.625H109.812C111.367 4.625 112.625 3.59085 112.625 2.3125C112.625 1.03415 111.367 0 109.812 0H14.1875C12.6328 0 11.375 1.03415 11.375 2.3125C11.375 3.59085 12.6328 4.625 14.1875 4.625Z" fill="#FEFEFE"/>
</svg>
