<svg width="100" height="100" viewBox="0 0 100 100" fill="none" xmlns="http://www.w3.org/2000/svg">
<g clip-path="url(#clip0_24_207)">
<path d="M32.7879 14.096C31.2752 14.7534 29.5771 15.1026 27.8181 15.1026C26.0459 15.1026 24.3373 14.7487 22.8176 14.0825C22.3086 14.986 21.3681 15.5507 20.3314 15.5786C20.664 19.4729 23.9283 22.5304 27.9086 22.5304C31.8879 22.5304 35.1517 19.4743 35.4857 15.5813C34.2066 15.5812 33.2961 14.9872 32.7879 14.096Z" fill="white"/>
<path d="M25.8717 69.161C23.0797 70.3222 19.9549 68.5058 19.558 65.5286C19.4151 64.4561 18.418 56.9772 18.2994 56.0872L17.8736 55.7972C17.8736 55.7972 17.8397 55.302 17.8397 95.3362C17.8397 97.912 19.9277 99.9999 22.5033 99.9999C25.0789 99.9999 27.167 97.912 27.167 95.3362V68.6224L25.8717 69.161Z" fill="white"/>
<path d="M46.632 33.5965C46.6076 28.7125 42.6139 24.7393 37.7303 24.7393C36.0762 24.7393 23.1443 24.7393 21.4617 24.7393C22.2647 26.6699 27.7275 39.807 28.5908 41.8828C29.0053 42.8795 29.0068 43.9781 28.5951 44.9762C28.5727 45.0309 28.5465 45.0832 28.5219 45.1365C30.9525 47.3924 31.5975 51.0195 30.0744 53.9826C31.2205 56.724 31.9457 58.459 33.0869 61.1885C34.059 63.526 32.9481 66.2184 30.6106 67.1906L28.5506 68.0471V95.3361C28.5506 97.9119 30.6387 99.9998 33.2143 99.9998C35.7899 99.9998 37.8779 97.9119 37.8779 95.3361C37.8779 93.2357 37.8779 42.0891 37.8779 33.6381C37.8779 33.3676 38.0969 33.1482 38.3672 33.1475C38.6377 33.1469 38.8578 33.365 38.859 33.6355C38.9158 44.9334 38.9063 39.6816 38.894 57.2375C38.8924 59.3838 40.6313 61.1252 42.7775 61.1266C42.7787 61.1266 42.7793 61.1266 42.7805 61.1266C44.9254 61.1266 46.6654 59.3883 46.6668 57.243C46.6793 39.6602 46.6891 44.9229 46.632 33.5965Z" fill="white"/>
<path d="M26.4301 42.7812L13.3631 11.3582L14.7379 10.7865C15.6057 10.4256 16.0166 9.42948 15.6557 8.5619C15.2947 7.69393 14.2987 7.28319 13.4311 7.64413L12.0563 8.21581L11.075 5.85643C10.7141 4.98846 9.71838 4.57772 8.85041 4.93846C7.98244 5.2994 7.5715 6.29549 7.93244 7.16327L14.4451 22.8242C13.9742 22.316 13.2207 22.1267 12.5442 22.408C11.6764 22.7689 11.2654 23.7648 11.6262 24.6328C12.2819 26.2096 16.25 35.7517 16.7858 37.04L26.5403 43.6846C26.5848 43.3887 26.5535 43.0777 26.4301 42.7812Z" fill="white"/>
<path d="M30.9266 62.0871L28.432 56.1201C26.4195 57.9348 23.5078 58.5527 20.8572 57.5654L21.8776 65.2197C22.0734 66.6893 23.6117 67.5672 24.9734 67.001L29.7121 65.0303C30.8604 64.5527 31.4039 63.2352 30.9266 62.0871Z" fill="white"/>
<path d="M25.6381 47.3756L14.2416 39.6127L14.7725 38.6785L10.9951 29.5947C7.99649 34.8701 8.14571 34.6078 5.71328 38.8867C4.71309 40.6465 5.23106 42.8797 6.9041 44.0191L21.2623 53.7994C23.0369 55.0088 25.4545 54.5488 26.6623 52.7756C27.8709 51.0014 27.4121 48.5838 25.6381 47.3756Z" fill="white"/>
<path d="M37.1822 12.5246C36.8623 10.7984 36.0756 6.53945 36.0756 6.38105C36.0754 2.85703 32.3785 0 27.8184 0C23.4666 0 19.9039 2.60234 19.5867 5.90273H19.5612L18.4082 12.5324C18.3438 12.9027 18.6293 13.2416 19.0047 13.2416H20.2524C20.4768 13.2416 20.683 13.1174 20.7877 12.9187L21.8936 10.8238C23.3942 12.0189 25.4934 12.7627 27.8184 12.7627C30.1246 12.7627 32.2088 12.0312 33.7067 10.8533L34.8119 12.9213C34.9172 13.1184 35.1225 13.2412 35.3459 13.2412H36.5871C36.9651 13.2412 37.2516 12.898 37.1822 12.5246Z" fill="white"/>
<path d="M80.9058 14.096C79.3932 14.7534 77.6951 15.1026 75.9361 15.1026C74.1639 15.1026 72.4553 14.7487 70.9355 14.0825C70.4266 14.986 69.4861 15.5507 68.4494 15.5786C68.782 19.4729 72.0463 22.5304 76.0266 22.5304C80.0058 22.5304 83.2697 19.4743 83.6037 15.5813C82.3248 15.5812 81.4142 14.9872 80.9058 14.096Z" fill="white"/>
<path d="M73.9899 69.161C71.1979 70.3222 68.0731 68.5058 67.6762 65.5286C67.5332 64.4561 66.5361 56.9772 66.4176 56.0872L65.9918 55.7972C65.9918 55.7972 65.9578 55.302 65.9578 95.3362C65.9578 97.912 68.0459 99.9999 70.6215 99.9999C73.1971 99.9999 75.2852 97.912 75.2852 95.3362V68.6224L73.9899 69.161Z" fill="white"/>
<path d="M94.7504 33.5965C94.7256 28.7125 90.7321 24.7393 85.8483 24.7393C84.1942 24.7393 71.2623 24.7393 69.5797 24.7393C70.3826 26.6699 75.8455 39.807 76.7088 41.8828C77.1233 42.8795 77.1248 43.9781 76.7131 44.9762C76.6907 45.0309 76.6645 45.0832 76.6399 45.1365C79.0705 47.3924 79.7155 51.0195 78.1924 53.9826C79.3385 56.724 80.0637 58.459 81.2049 61.1885C82.177 63.526 81.066 66.2184 78.7285 67.1906L76.6686 68.0471V95.3361C76.6686 97.9119 78.7567 99.9998 81.3323 99.9998C83.9078 99.9998 85.9959 97.9119 85.9959 95.3361C85.9959 93.2357 85.9959 42.0891 85.9959 33.6381C85.9959 33.3676 86.2149 33.1482 86.4852 33.1475C86.7557 33.1469 86.9758 33.365 86.9772 33.6355C87.034 44.9334 87.0244 39.6816 87.0121 57.2375C87.0106 59.3838 88.7494 61.1252 90.8957 61.1266C90.8969 61.1266 90.8975 61.1266 90.8987 61.1266C93.0436 61.1266 94.7836 59.3883 94.785 57.243C94.7977 39.6604 94.8073 44.9229 94.7504 33.5965Z" fill="white"/>
<path d="M74.5482 42.7812L61.4811 11.3582L62.8559 10.7865C63.7236 10.4256 64.1346 9.42948 63.7736 8.5619C63.4127 7.69393 62.4166 7.28319 61.549 7.64413L60.1742 8.21581L59.193 5.85643C58.832 4.98846 57.8363 4.57772 56.9684 4.93846C56.1006 5.2994 55.6895 6.29549 56.0504 7.16327L62.5631 22.8242C62.0922 22.316 61.3387 22.1267 60.6623 22.408C59.7943 22.7689 59.3836 23.7648 59.7443 24.6328C60.4 26.2096 64.3682 35.7517 64.9039 37.04L74.6584 43.6846C74.7027 43.3887 74.6715 43.0777 74.5482 42.7812Z" fill="white"/>
<path d="M79.0446 62.0871L76.55 56.1201C74.5375 57.9348 71.6258 58.5527 68.9752 57.5654L69.9955 65.2197C70.1914 66.6893 71.7297 67.5672 73.0914 67.001L77.8301 65.0303C78.9783 64.5527 79.5219 63.2352 79.0446 62.0871Z" fill="white"/>
<path d="M73.7563 47.3756L62.3598 39.6127L62.8906 38.6785L59.1131 29.5947C56.1145 34.8701 56.2637 34.6078 53.8313 38.8867C52.8311 40.6465 53.349 42.8797 55.0223 44.0191L69.3805 53.7994C71.1553 55.0088 73.5729 54.5488 74.7807 52.7756C75.9889 51.0014 75.5303 48.5838 73.7563 47.3756Z" fill="white"/>
<path d="M85.3002 12.5246C84.9802 10.7984 84.1935 6.53945 84.1935 6.38105C84.1935 2.85703 80.4965 0 75.9363 0C71.5845 0 68.0218 2.60234 67.7047 5.90273H67.6791L66.5261 12.5322C66.4617 12.9025 66.7472 13.2414 67.1226 13.2414H68.3703C68.5947 13.2414 68.8009 13.1172 68.9056 12.9186L70.0115 10.8236C71.5121 12.0188 73.6113 12.7625 75.9363 12.7625C78.2425 12.7625 80.3267 12.0311 81.8246 10.8531L82.9299 12.9211C83.0351 13.1182 83.2404 13.241 83.4638 13.241H84.705C85.083 13.2412 85.3695 12.898 85.3002 12.5246Z" fill="white"/>
</g>
<defs>
<clipPath id="clip0_24_207">
<rect width="100" height="100" fill="white"/>
</clipPath>
</defs>
</svg>
